<svg width="150" height="150" viewBox="0 0 150 150" xmlns="http://www.w3.org/2000/svg" xmlns:xlink="http://www.w3.org/1999/xlink">
    <path id="Path" fill="#5a64ea" stroke="#202125" stroke-width="3" stroke-linecap="round" stroke-linejoin="round" d="M 126.893997 34.949997 C 124.866005 31.887001 121.995003 29.543999 118.589996 28.181999 C 111.198006 25.218002 104.840996 23.237999 99.153 22.122002 C 95.163002 21.341995 91.211998 23.304001 89.313004 27 L 88.839005 27.923996 C 84.626999 27.459 80.153999 27.303001 75.059998 27.431999 C 69.836998 27.306 65.348999 27.459 61.131004 27.923996 L 60.659996 27 C 58.761002 23.304001 54.804001 21.345001 50.822998 22.125 C 45.135002 23.237999 38.775002 25.218002 31.386 28.184998 C 27.984001 29.546997 25.113001 31.887001 23.081999 34.953003 C 8.919001 56.346001 3.369 79.422005 6.117 105.503998 C 6.213 106.418999 6.723 107.237991 7.5 107.727005 C 18.396 114.597 27.824999 119.300995 37.173 122.535004 C 41.082001 123.899994 45.417 122.373001 47.723999 118.848007 L 51.836998 112.544998 C 48.561001 111.309006 45.362999 109.845001 42.297001 108.096008 C 40.860001 107.276993 40.359001 105.444 41.178001 104.006996 C 41.996998 102.563995 43.829998 102.057007 45.27 102.888 C 54.393002 108.089996 64.707001 110.840996 75.096001 110.840996 C 85.485001 110.840996 95.799004 108.089996 104.921997 102.888 C 106.358994 102.057007 108.192001 102.563995 109.014008 104.006996 C 109.833 105.444 109.332001 107.276993 107.895004 108.096008 C 104.727005 109.904999 101.415001 111.411003 98.022003 112.667999 L 102.254997 118.973999 C 103.998001 121.569 106.875 123.044998 109.838997 123.044998 C 110.805008 123.044998 111.779999 122.886002 112.727997 122.561996 C 122.102997 119.325005 131.549988 114.615005 142.470001 107.729996 C 143.247009 107.241005 143.756989 106.418999 143.852997 105.506996 C 146.606995 79.422005 141.057007 56.343002 126.893997 34.949997 Z M 55.823997 86.948997 C 50.045998 86.948997 45.291 80.862 45.291 73.464005 C 45.291 66.065994 50.045998 59.979004 55.823997 59.979004 C 61.602001 59.979004 66.356995 66.065994 66.356995 73.464005 C 66.356995 80.862 61.602001 86.948997 55.823997 86.948997 Z M 94.803001 86.871002 C 89.079002 86.871002 84.368996 80.748001 84.368996 73.305 C 84.368996 65.862 89.079002 59.738998 94.803001 59.738998 C 100.526993 59.738998 105.237 65.862 105.237 73.305 C 105.237 80.748001 100.526993 86.871002 94.803001 86.871002 Z"/>
</svg>
